<svg version="1.1" viewBox="0.0 0.0 377.9527559055118 377.9527559055118" fill="none" stroke="none" stroke-linecap="square" stroke-miterlimit="10" xmlns:xlink="http://www.w3.org/1999/xlink" xmlns="http://www.w3.org/2000/svg"><clipPath id="p.0"><path d="m0 0l377.95276 0l0 377.95276l-377.95276 0l0 -377.95276z" clip-rule="nonzero"/></clipPath><g clip-path="url(#p.0)"><path fill="#000000" fill-opacity="0.0" d="m0 0l377.95276 0l0 377.95276l-377.95276 0z" fill-rule="evenodd"/><path fill="#ffffff" d="m31.464567 188.97638l0 0c0 -87.53061 70.52044 -158.48819 157.51181 -158.48819l0 0c41.774734 0 81.83847 16.697815 111.377655 46.420113c29.539215 29.722305 46.134155 70.0344 46.134155 112.06808l0 0c0 87.53061 -70.52045 158.48819 -157.51181 158.48819l0 0c-86.99137 0 -157.51181 -70.95758 -157.51181 -158.48819z" fill-rule="evenodd"/><path stroke="#ffffff" stroke-width="24.0" stroke-linejoin="round" stroke-linecap="butt" d="m31.464567 188.97638l0 0c0 -87.53061 70.52044 -158.48819 157.51181 -158.48819l0 0c41.774734 0 81.83847 16.697815 111.377655 46.420113c29.539215 29.722305 46.134155 70.0344 46.134155 112.06808l0 0c0 87.53061 -70.52045 158.48819 -157.51181 158.48819l0 0c-86.99137 0 -157.51181 -70.95758 -157.51181 -158.48819z" fill-rule="evenodd"/><path fill="#000000" d="m216.97638 248.0l0 112.0l136.0 -112.0z" fill-rule="evenodd"/><path stroke="#000000" stroke-width="1.0" stroke-linejoin="round" stroke-linecap="butt" d="m216.97638 248.0l0 112.0l136.0 -112.0z" fill-rule="evenodd"/><path fill="#000000" d="m232.97638 272.0l0 88.0l112.0 -88.0z" fill-rule="evenodd"/><path stroke="#000000" stroke-width="1.0" stroke-linejoin="round" stroke-linecap="butt" d="m232.97638 272.0l0 88.0l112.0 -88.0z" fill-rule="evenodd"/><path fill="#000000" d="m160.97638 248.0l0 112.0l-136.0 -112.0z" fill-rule="evenodd"/><path stroke="#000000" stroke-width="1.0" stroke-linejoin="round" stroke-linecap="butt" d="m160.97638 248.0l0 112.0l-136.0 -112.0z" fill-rule="evenodd"/><path fill="#000000" d="m144.97638 272.0l0 88.0l-112.0 -88.0z" fill-rule="evenodd"/><path stroke="#000000" stroke-width="1.0" stroke-linejoin="round" stroke-linecap="butt" d="m144.97638 272.0l0 88.0l-112.0 -88.0z" fill-rule="evenodd"/><path fill="#000000" fill-opacity="0.0" d="m20.976377 188.97638l0 0c0 -92.78384 75.21616 -168.0 168.0 -168.0l0 0c44.556366 0 87.28781 17.69995 118.793945 49.206062c31.506104 31.506111 49.206055 74.23757 49.206055 118.79394l0 0c0 92.783844 -75.216156 168.0 -168.0 168.0l0 0c-92.78384 0 -168.0 -75.216156 -168.0 -168.0z" fill-rule="evenodd"/><path stroke="#ff0000" stroke-width="24.0" stroke-linejoin="round" stroke-linecap="butt" d="m20.976377 188.97638l0 0c0 -92.78384 75.21616 -168.0 168.0 -168.0l0 0c44.556366 0 87.28781 17.69995 118.793945 49.206062c31.506104 31.506111 49.206055 74.23757 49.206055 118.79394l0 0c0 92.783844 -75.216156 168.0 -168.0 168.0l0 0c-92.78384 0 -168.0 -75.216156 -168.0 -168.0z" fill-rule="evenodd"/></g></svg>